<?xml version="1.0" standalone="no"?>
<!DOCTYPE svg PUBLIC "-//W3C//DTD SVG 20010904//EN"
 "http://www.w3.org/TR/2001/REC-SVG-20010904/DTD/svg10.dtd">
<svg version="1.0" xmlns="http://www.w3.org/2000/svg"
 width="300.000000pt" height="300.000000pt" viewBox="0 0 300.000000 300.000000"
 preserveAspectRatio="xMidYMid meet">

<g transform="translate(0.000000,300.000000) scale(0.100000,-0.100000)"
fill="#000000" stroke="none">
<path d="M1349 2989 c-318 -31 -641 -179 -877 -404 -141 -133 -232 -261 -323
-450 -100 -211 -142 -398 -142 -640 0 -240 42 -428 142 -640 73 -152 118 -223
216 -338 202 -237 466 -400 779 -480 119 -31 125 -32 356 -32 223 0 240 2 344
28 328 82 615 263 817 515 84 104 124 169 190 307 100 210 142 398 142 640 1
235 -41 426 -139 634 -66 139 -118 223 -200 322 -258 310 -613 498 -1018 538
-121 12 -161 12 -287 0z m498 -1032 l331 -412 -169 -3 -169 -2 0 -410 0 -410
-335 0 -335 0 0 410 0 410 -169 2 -170 3 337 412 c185 227 339 412 342 412 3
0 154 -185 337 -412z"/>
</g>
</svg>
