<?xml version="1.0" standalone="no"?>
<!DOCTYPE svg PUBLIC "-//W3C//DTD SVG 20010904//EN"
 "http://www.w3.org/TR/2001/REC-SVG-20010904/DTD/svg10.dtd">
<svg version="1.0" xmlns="http://www.w3.org/2000/svg"
 width="300.000000pt" height="300.000000pt" viewBox="0 0 300.000000 300.000000"
 preserveAspectRatio="xMidYMid meet">
<metadata>
Created by potrace 1.16, written by Peter Selinger 2001-2019
</metadata>
<g transform="translate(0.000000,300.000000) scale(0.100000,-0.100000)"
fill="#000000" stroke="none">
<path d="M1349 2989 c-318 -31 -641 -179 -877 -404 -141 -133 -232 -261 -323
-450 -100 -211 -142 -398 -142 -640 0 -237 41 -427 139 -634 66 -139 118 -223
200 -322 212 -255 494 -430 817 -507 105 -25 127 -27 342 -27 217 0 236 2 339
28 328 82 615 263 817 515 84 104 124 169 190 307 100 211 142 398 142 640 0
237 -41 427 -139 634 -66 139 -118 223 -200 322 -259 312 -611 497 -1023 539
-115 11 -157 11 -282 -1z m498 -1032 l331 -412 -169 -3 -169 -2 0 -410 0 -410
-335 0 -335 0 0 410 0 410 -169 2 -170 3 337 412 c185 227 339 412 342 412 3
0 154 -185 337 -412z"/>
</g>
</svg>
