{"extensionsUsed" : ["KHR_materials_pbrSpecularGlossiness"], "accessors" : [{"bufferView" : 0, "byteOffset" : 0, "componentType" : 5123, "count" : 72, "type" : "SCALAR", "max" : [27], "min" : [0]}, {"bufferView" : 1, "byteOffset" : 0, "componentType" : 5126, "count" : 28, "type" : "VEC3", "max" : [0.5, 0.5, 0.210173025727272], "min" : [-0.5, -0.5, -0.210173025727272]}, {"bufferView" : 1, "byteOffset" : 12, "componentType" : 5126, "count" : 28, "type" : "VEC3", "max" : [0.978824496269226, 0.999944508075714, 1.00000441074371], "min" : [-0.976918339729309, -0.897763192653656, -1.00000441074371]}, {"bufferView" : 1, "byteOffset" : 24, "componentType" : 5126, "count" : 28, "type" : "VEC2", "max" : [0.741534650325775, 0.999972760677338], "min" : [5.30481338500977E-06, 4.93824481964111E-05]}, {"bufferView" : 1, "byteOffset" : 32, "componentType" : 5126, "count" : 28, "type" : "VEC4", "max" : [1, 1, 1, 1], "min" : [1, 1, 1, 1]}], "asset" : {"generator" : "Aspose.3D 20.2.1", "version" : "2.0"}, "buffers" : [{"uri" : "buffer.bin", "byteLength" : 2022780}], "bufferViews" : [{"buffer" : 0, "byteOffset" : 0, "byteLength" : 144, "target" : 34963}, {"buffer" : 0, "byteOffset" : 148, "byteLength" : 1344, "byteStride" : 48, "target" : 34962}, {"buffer" : 0, "byteOffset" : 1496, "byteLength" : 597879}, {"buffer" : 0, "byteOffset" : 599376, "byteLength" : 501851}, {"buffer" : 0, "byteOffset" : 1101228, "byteLength" : 609667}, {"buffer" : 0, "byteOffset" : 1710896, "byteLength" : 311882}], "images" : [{"mimeType" : "image/png", "bufferView" : 2}, {"mimeType" : "image/png", "bufferView" : 3}, {"mimeType" : "image/png", "bufferView" : 4}, {"mimeType" : "image/png", "bufferView" : 5}], "materials" : [{"extensions" : {"KHR_materials_pbrSpecularGlossiness" : {"diffuseFactor" : [1, 1, 1, 1], "diffuseTexture" : {"index" : 0, "texCoord" : 0}, "specularFactor" : [1, 1, 1], "glossinessFactor" : 1, "specularGlossinessTexture" : {"index" : 1, "texCoord" : 0, "scale" : 1}}}, "pbrMetallicRoughness" : {"baseColorFactor" : [1, 1, 1, 1], "baseColorTexture" : {"index" : 2, "texCoord" : 0}, "metallicFactor" : 1, "roughnessFactor" : 1, "metallicRoughnessTexture" : {"index" : 3, "texCoord" : 0}}, "emissiveFactor" : [0, 0, 0], "alphaMode" : "OPAQUE", "doubleSided" : true}], "meshes" : [{"primitives" : [{"attributes" : {"POSITION" : 1, "NORMAL" : 2, "TEXCOORD_0" : 3, "COLOR" : 4}, "indices" : 0, "material" : 0, "mode" : 4}]}], "nodes" : [{"matrix" : [0.511999845504761, -8.26250289653816E-10, -1.7840015109266E-09, 0, -7.35726354517243E-10, 0.338955515799716, -0.368135286663438, 0, 9.08115708588649E-10, 0.188328980993393, 0.173401326102735, 0, -4.10079969981325E-08, -2.26020830496054E-07, 0.255999982357025, 1], "mesh" : 0, "name" : "node_id5"}, {"children" : [0], "name" : "root"}], "samplers" : [{"magFilter" : 9728, "minFilter" : 9985, "wrapS" : 10497, "wrapT" : 10497}, {"magFilter" : 9728, "minFilter" : 9985, "wrapS" : 10497, "wrapT" : 10497}, {"magFilter" : 9728, "minFilter" : 9985, "wrapS" : 10497, "wrapT" : 10497}, {"magFilter" : 9728, "minFilter" : 9985, "wrapS" : 10497, "wrapT" : 10497}], "scene" : 0, "scenes" : [{"nodes" : [1]}], "textures" : [{"sampler" : 0, "source" : 0}, {"sampler" : 1, "source" : 1}, {"sampler" : 2, "source" : 2}, {"sampler" : 3, "source" : 3}]}